<svg xmlns="http://www.w3.org/2000/svg" width="161" height="161" viewBox="0 0 161 161" xmlns:xlink="http://www.w3.org/1999/xlink">
  <defs>
    <polygon id="a" points=".097 161 .097 .428 160.572 .428 160.572 161"/>
  </defs>
  <g fill="none" fill-rule="evenodd">
    <mask id="b" fill="white">
      <use xlink:href="#a"/>
    </mask>
    <path fill="#EA5F6E" d="M160.572392,80.7138041 C160.572392,125.054741 124.627133,161 80.2861959,161 C35.9452589,161 0,125.054741 0,80.7138041 C0,36.3728671 35.9452589,0.427608218 80.2861959,0.427608218 C124.627133,0.427608218 160.572392,36.3728671 160.572392,80.7138041" mask="url(#b)"/>
    <path fill="#FFFFFF" d="M69.5457351,83.6593161 L71.0071871,83.6593161 C73.5312196,83.6593161 75.6563807,82.5886613 77.6491229,80.5797704 L98.2434841,59.1618285 C100.236226,57.0205188 102.493806,55.9482491 105.151873,55.9482491 C113.122841,55.9482491 116.310583,65.85544 111.528971,70.6741943 L90.404934,91.6916499 L110.863647,113.109592 C114.451875,116.99334 114.718327,122.346614 111.130099,126.228747 C109.536228,127.969571 107.409452,128.906192 104.753001,128.906192 C101.962516,128.906192 99.7049361,127.835537 97.9770315,125.826646 L77.6491229,103.738536 C75.7904144,101.73126 73.6636384,100.660605 71.2720248,100.660605 L69.5457351,100.660605 L69.5457351,119.803203 C69.5457351,125.024059 65.8250883,129.040226 60.6429896,129.040226 C55.8613772,129.040226 51.741859,124.755991 51.741859,119.803203 L51.741859,41.6260198 C51.741859,36.4051644 55.7273434,32.3873826 60.6429896,32.3873826 C65.5602506,32.3873826 69.5457351,36.4051644 69.5457351,41.6260198 L69.5457351,83.6593161"/>
  </g>
</svg>
